<?xml version="1.0" standalone="no"?>
<!DOCTYPE svg PUBLIC "-//W3C//DTD SVG 20010904//EN"
 "http://www.w3.org/TR/2001/REC-SVG-20010904/DTD/svg10.dtd">
<svg version="1.0" xmlns="http://www.w3.org/2000/svg"
 width="300.000000pt" height="177.000000pt" viewBox="0 0 300.000000 177.000000"
 preserveAspectRatio="xMidYMid meet">
<metadata>
Created by potrace 1.10, written by Peter Selinger 2001-2011
</metadata>
<g transform="translate(0.000000,177.000000) scale(0.100000,-0.100000)"
fill="#000000" stroke="none">
<path d="M166 1705 c10 -8 27 -15 36 -15 9 0 18 -6 21 -12 2 -7 8 -10 11 -6
13 11 -33 48 -61 48 -26 0 -26 -1 -7 -15z"/>
<path d="M273 1703 c-7 -2 -13 -9 -13 -15 0 -5 19 -7 49 -3 30 4 52 2 56 -4 3
-6 11 -11 16 -11 6 0 7 4 4 10 -3 5 0 7 9 4 8 -3 21 -2 28 2 9 6 6 10 -12 15
-29 8 -119 10 -137 2z"/>
<path d="M0 1684 c0 -9 5 -14 12 -12 18 6 21 28 4 28 -9 0 -16 -7 -16 -16z"/>
<path d="M697 1643 c-13 -12 -7 -22 12 -20 15 1 17 4 9 14 -12 15 -13 15 -21
6z"/>
<path d="M1895 1603 c-16 -9 -49 -17 -73 -18 -24 -1 -48 -7 -54 -13 -20 -20
86 -6 130 17 40 22 51 31 35 31 -5 -1 -21 -8 -38 -17z"/>
<path d="M1426 1602 c-8 -13 39 -21 56 -11 10 7 9 9 -4 9 -9 0 -23 3 -31 6 -8
3 -18 1 -21 -4z"/>
<path d="M2110 1600 c17 -11 57 -14 46 -3 -4 4 -19 9 -34 10 -21 3 -24 1 -12
-7z"/>
<path d="M1540 1590 c0 -6 6 -10 13 -11 6 0 22 -2 34 -5 15 -2 21 0 18 9 -6
14 -65 21 -65 7z"/>
<path d="M2774 1579 c-3 -5 9 -9 25 -9 17 0 31 2 31 4 0 8 -51 13 -56 5z"/>
<path d="M2691 1576 c10 -10 59 -14 64 -5 4 5 -11 9 -31 9 -21 0 -35 -2 -33
-4z"/>
<path d="M2327 1564 c-3 -3 3 -14 14 -25 19 -19 39 -25 39 -11 -1 10 -47 42
-53 36z"/>
<path d="M700 1540 c-12 -8 -9 -10 13 -10 15 0 27 5 27 10 0 13 -20 13 -40 0z"/>
<path d="M297 1523 c-16 -15 -5 -23 31 -22 20 0 31 3 24 6 -6 2 -10 9 -6 14 6
10 -39 13 -49 2z"/>
<path d="M615 1520 c-7 -12 12 -12 40 0 18 8 17 9 -7 9 -15 1 -30 -3 -33 -9z"/>
<path d="M2710 1516 c0 -10 10 -14 31 -14 31 1 31 1 8 14 -31 17 -39 17 -39 0z"/>
<path d="M2780 1499 c0 -10 5 -19 10 -19 6 0 10 5 10 10 0 6 7 10 15 10 8 0
12 -6 9 -14 -3 -9 7 -15 33 -19 57 -10 121 -8 128 3 6 10 -22 14 -82 10 -18
-1 -33 3 -33 8 0 5 -6 9 -12 9 -7 1 -28 6 -45 11 -29 9 -33 8 -33 -9z"/>
<path d="M2612 1479 c-13 -5 -41 -8 -63 -7 -21 1 -42 -2 -46 -5 -9 -10 137 -7
167 3 15 5 18 8 8 9 -9 1 -22 3 -30 5 -7 3 -23 1 -36 -5z"/>
<path d="M2115 1470 l-30 -8 33 -1 c17 0 32 4 32 9 0 6 -1 9 -2 9 -2 -1 -16
-5 -33 -9z"/>
<path d="M1574 1459 c-3 -5 9 -9 25 -9 17 0 31 2 31 4 0 8 -51 13 -56 5z"/>
<path d="M1695 1460 c-16 -7 -11 -9 22 -9 23 -1 45 4 48 9 8 12 -42 12 -70 0z"/>
<path d="M1945 1460 c-33 -4 -86 -8 -118 -9 -41 -1 -56 -4 -51 -12 10 -16 197
-3 232 16 29 15 26 16 -63 5z"/>
<path d="M2368 1463 c23 -2 61 -2 85 0 23 2 4 4 -43 4 -47 0 -66 -2 -42 -4z"/>
<path d="M2282 1418 c-21 -21 -14 -38 16 -38 15 1 41 -1 57 -4 l30 -6 -27 12
c-16 7 -28 17 -28 24 0 6 -7 15 -16 18 -20 8 -18 8 -32 -6z m33 -18 c-3 -5
-13 -10 -21 -10 -8 0 -14 5 -14 10 0 6 9 10 21 10 11 0 17 -4 14 -10z"/>
<path d="M87 1394 c3 -8 10 -13 15 -12 16 6 14 21 -4 24 -11 1 -15 -3 -11 -12z"/>
<path d="M165 1391 c37 -17 60 -24 70 -21 6 1 25 4 43 5 56 4 48 15 -10 15
-31 0 -71 2 -89 5 -26 4 -29 3 -14 -4z"/>
<path d="M970 1390 c0 -5 10 -10 23 -10 18 0 19 2 7 10 -19 13 -30 13 -30 0z"/>
<path d="M1653 1393 c9 -2 25 -2 35 0 9 3 1 5 -18 5 -19 0 -27 -2 -17 -5z"/>
<path d="M1565 1350 c3 -5 18 -10 32 -10 32 0 28 5 -10 14 -19 4 -26 3 -22 -4z"/>
<path d="M2660 1348 c-30 -3 -86 -6 -123 -7 -38 -1 -66 -5 -63 -10 3 -4 78 -8
166 -7 91 1 161 -3 163 -8 2 -5 47 -11 100 -12 90 -3 97 -1 97 17 0 17 -8 19
-72 20 -40 1 -85 0 -100 -1 -16 -1 -28 2 -28 7 0 10 -62 11 -140 1z"/>
<path d="M1648 1343 c12 -2 30 -2 40 0 9 3 -1 5 -23 4 -22 0 -30 -2 -17 -4z"/>
<path d="M2383 1333 c9 -2 25 -2 35 0 9 3 1 5 -18 5 -19 0 -27 -2 -17 -5z"/>
<path d="M1843 1323 c11 -10 157 -12 157 -2 0 5 -37 9 -82 9 -45 0 -78 -3 -75
-7z"/>
<path d="M720 1306 c0 -8 -8 -16 -17 -19 -10 -2 -1 -4 19 -3 29 1 38 5 38 19
0 10 -8 17 -20 17 -11 0 -20 -6 -20 -14z"/>
<path d="M790 1290 c0 -5 10 -10 23 -11 12 0 38 -3 57 -6 46 -7 443 -4 494 3
27 4 35 9 25 14 -8 5 -33 4 -55 -2 -27 -8 -64 -8 -110 -2 -38 5 -121 6 -184 3
-64 -4 -119 -3 -124 2 -14 12 -126 11 -126 -1z"/>
<path d="M2240 1291 c-14 -3 -54 -6 -90 -6 -36 0 -67 -3 -70 -7 -3 -4 -28 -8
-55 -9 -28 -1 -61 -9 -75 -17 -23 -14 -24 -14 -12 0 12 15 8 16 -30 15 -24 -1
-70 3 -102 7 -40 6 -57 5 -52 -2 3 -6 0 -13 -6 -15 -7 -3 8 -3 34 0 57 7 134
-5 103 -17 -12 -4 6 -9 54 -14 74 -6 117 2 71 15 -14 4 51 7 143 8 93 1 166 4
164 9 -3 4 72 9 167 10 94 2 174 7 178 10 4 4 -66 8 -155 10 -89 1 -180 4
-202 6 -22 2 -51 0 -65 -3z"/>
<path d="M2683 1285 c0 -12 12 -15 51 -13 44 1 46 2 13 5 -20 2 -35 8 -32 14
4 5 -2 9 -13 9 -10 0 -19 -7 -19 -15z"/>
<path d="M1485 1269 c-49 -3 -81 -6 -70 -8 82 -9 129 -10 190 -3 l70 8 -50 5
c-27 2 -90 1 -140 -2z"/>
<path d="M0 1208 c0 -15 4 -29 9 -33 16 -9 18 9 5 35 l-14 25 0 -27z"/>
<path d="M1718 1223 c-27 -2 -48 -8 -48 -14 0 -5 41 -8 99 -7 78 2 97 6 89 16
-10 12 -39 13 -140 5z"/>
<path d="M2290 1220 c8 -5 42 -9 75 -9 58 1 59 2 20 10 -58 12 -114 11 -95 -1z"/>
<path d="M103 1202 c-3 -12 -9 -19 -14 -16 -5 3 -6 -2 -3 -10 9 -24 21 -19 27
12 6 33 -1 45 -10 14z"/>
<path d="M2575 1210 c-4 -6 7 -10 27 -9 27 0 30 2 13 9 -27 12 -33 12 -40 0z"/>
<path d="M2743 1203 c9 -2 25 -2 35 0 9 3 1 5 -18 5 -19 0 -27 -2 -17 -5z"/>
<path d="M144 1163 c3 -7 -1 -14 -9 -14 -35 -3 -40 -6 -38 -17 2 -6 -4 -9 -12
-6 -10 4 -15 0 -15 -15 0 -13 6 -21 18 -21 14 0 15 2 2 10 -13 8 -12 10 5 11
35 3 59 -1 66 -12 10 -17 119 -61 163 -66 23 -3 41 -1 46 6 9 15 50 0 70 -25
14 -16 13 -16 -18 0 -36 19 -80 14 -61 -7 11 -11 53 -17 123 -17 16 0 36 -5
43 -11 7 -7 13 -8 13 -5 0 4 10 2 21 -5 12 -6 19 -7 15 -1 -3 5 -19 15 -35 22
-43 18 -30 43 18 34 63 -12 162 -45 157 -53 -3 -4 25 -4 62 1 80 10 98 16 55
17 -17 1 -35 6 -38 11 -4 6 9 8 37 4 151 -20 285 -27 268 -15 -12 8 -8 11 20
11 19 0 42 4 49 9 12 8 9 11 -12 16 -15 4 -35 4 -44 -1 -10 -4 -22 -6 -28 -5
-5 2 -118 4 -250 6 -223 3 -285 8 -390 33 -102 25 -155 33 -213 34 -52 0 -62
3 -60 17 1 9 -1 22 -6 30 -6 10 -5 12 3 7 6 -4 18 0 27 8 8 9 12 16 7 17 -53
6 -64 5 -59 -8z"/>
<path d="M425 1171 c-30 -12 111 -19 158 -7 26 6 42 5 50 -3 14 -14 47 -14 47
0 0 6 -9 9 -20 6 -11 -3 -20 -1 -20 4 0 11 -187 11 -215 0z"/>
<path d="M1223 1173 c9 -2 25 -2 35 0 9 3 1 5 -18 5 -19 0 -27 -2 -17 -5z"/>
<path d="M32 1158 c-9 -9 -9 -15 0 -25 8 -10 8 -17 0 -25 -12 -12 -16 -6 -25
37 -3 13 -5 9 -6 -11 -1 -20 7 -38 22 -52 26 -25 42 -19 26 9 -6 13 -6 19 1
19 5 0 10 7 10 15 0 8 -8 15 -17 15 -15 0 -14 2 3 15 10 8 14 15 9 15 -6 0
-16 -5 -23 -12z"/>
<path d="M745 1163 c22 -3 44 -9 50 -14 15 -15 45 -11 39 6 -5 11 -21 15 -68
13 -46 -1 -51 -2 -21 -5z"/>
<path d="M920 1157 c0 -14 45 -16 57 -2 5 4 2 5 -4 1 -7 -4 -13 -2 -13 3 0 6
-9 11 -20 11 -11 0 -20 -6 -20 -13z"/>
<path d="M1341 1161 c-9 -6 -5 -10 16 -13 20 -3 30 0 30 9 0 15 -25 17 -46 4z"/>
<path d="M539 1129 c-8 -5 -45 -9 -84 -10 -50 -1 -63 -3 -45 -9 38 -12 108
-11 116 1 4 7 21 9 40 6 19 -3 32 -2 29 2 -8 14 -42 19 -56 10z"/>
<path d="M1213 1126 c4 -14 57 -21 57 -8 0 5 -14 12 -30 14 -19 3 -29 1 -27
-6z"/>
<path d="M1311 1116 c8 -9 33 -19 55 -22 l39 -4 -41 13 c-23 8 -47 18 -55 22
-10 5 -9 3 2 -9z"/>
<path d="M1885 1121 c-25 -24 -350 -73 -482 -73 -53 0 -70 -4 -67 -13 3 -7 -3
-16 -13 -20 -27 -12 -93 -12 -100 -1 -4 5 1 7 10 3 9 -3 19 -2 22 3 11 17 -29
10 -60 -10 -16 -11 -40 -20 -52 -20 -13 0 -23 -5 -23 -11 0 -6 28 -10 73 -9
39 0 97 -3 127 -6 67 -8 61 4 -7 15 l-48 8 57 4 c31 2 54 1 51 -3 -2 -5 1 -8
6 -8 6 0 11 5 11 11 0 6 8 8 18 5 51 -14 84 -17 78 -8 -3 6 4 13 16 15 19 4
18 5 -7 7 -30 2 -30 2 -5 10 35 11 98 12 105 1 3 -5 -3 -12 -12 -14 -12 -4 -9
-5 7 -5 44 2 61 -2 56 -11 -4 -5 3 -7 14 -4 14 4 20 0 20 -11 0 -19 -30 -21
-49 -3 -8 6 -11 8 -8 2 3 -6 -29 -10 -89 -9 -99 1 -141 -11 -51 -14 29 -2 196
-12 371 -23 235 -14 321 -17 326 -9 9 15 17 14 36 -5 9 -9 34 -15 62 -16 47 0
108 -17 70 -18 -10 -1 -18 -5 -18 -11 0 -14 6 -13 42 6 28 14 30 14 25 1 -4
-12 -2 -14 10 -10 8 3 19 0 24 -8 7 -11 9 -10 9 5 0 14 5 17 25 12 15 -4 25
-2 25 4 0 7 6 6 14 -2 12 -11 9 -14 -18 -19 l-31 -6 32 -2 c34 -1 54 16 33 29
-8 5 -6 9 7 15 10 5 23 7 30 6 16 -2 23 12 13 29 -7 12 -12 12 -27 -2 -27 -24
-83 -34 -83 -15 0 9 8 18 18 20 11 3 8 5 -9 6 -22 1 -26 -3 -24 -22 2 -16 -3
-23 -16 -24 -10 -1 -19 3 -19 8 0 5 -6 9 -12 8 -7 -1 -46 -1 -85 0 -71 1 -73
2 -73 27 0 14 4 23 10 19 6 -4 8 -11 5 -16 -4 -5 -3 -9 2 -10 4 0 17 -2 29 -3
17 -2 20 2 16 17 -4 15 -2 18 8 12 8 -5 11 -3 8 6 -3 8 -19 14 -42 14 -41 1
-50 -3 -59 -25 -4 -10 -6 -9 -6 6 -1 18 -6 21 -38 17 -21 -2 -42 -8 -47 -13
-5 -5 -15 -6 -24 -3 -11 5 -13 2 -8 -8 4 -8 0 -5 -8 5 -9 11 -16 14 -16 8 0
-19 -28 -14 -34 6 -8 23 -44 45 -80 47 l-28 2 23 -18 c13 -10 34 -19 47 -19
19 0 21 -3 14 -17 -12 -20 -52 -25 -52 -6 0 8 -4 11 -10 8 -5 -3 -10 0 -10 7
0 10 -3 9 -9 -2 -6 -8 -7 -18 -4 -23 3 -5 -6 -1 -21 8 -15 10 -41 21 -58 24
-17 4 -34 13 -36 21 -4 12 -2 13 9 3 19 -19 37 -16 49 7 10 19 9 19 -16 8 -19
-9 -28 -10 -31 -2 -2 6 -15 9 -28 6 -27 -5 -33 -17 -12 -25 6 -3 -13 -6 -43
-6 -31 -1 -68 6 -84 14 -15 8 -35 15 -42 15 -8 0 -14 5 -14 11 0 7 11 9 29 6
16 -3 53 -2 83 4 75 13 79 14 77 24 -1 11 22 25 41 24 10 0 8 -3 -5 -9 -19 -8
-19 -9 3 -9 13 -1 32 4 42 9 13 7 21 7 25 0 3 -5 12 -10 18 -10 7 0 6 4 -3 10
-11 7 -5 8 20 4 26 -4 31 -3 20 5 -8 6 -25 11 -37 11 -13 0 -23 4 -23 10 0 5
7 6 17 3 11 -4 14 -3 9 5 -9 14 -19 15 -31 3z m-655 -131 c12 -8 9 -10 -13
-10 -16 0 -26 4 -22 10 8 12 16 12 35 0z m508 -19 c11 -6 10 -10 -4 -15 -9 -3
-19 -4 -22 -1 -3 3 1 5 9 6 8 1 3 5 -11 9 -21 7 -21 8 -5 9 11 0 26 -3 33 -8z
m131 -7 c3 -3 -1 -10 -7 -16 -9 -9 -12 -9 -12 1 0 10 -9 12 -30 8 -16 -4 -32
-2 -35 3 -4 6 -11 7 -17 4 -7 -4 -8 -2 -4 5 5 8 22 10 54 5 26 -4 49 -8 51
-10z"/>
<path d="M2564 1121 c3 -5 15 -7 26 -4 28 7 25 13 -6 13 -14 0 -23 -4 -20 -9z"/>
<path d="M2250 1111 c0 -17 34 -36 104 -58 39 -12 92 -28 119 -37 26 -8 47
-12 47 -8 0 11 -59 34 -70 27 -5 -3 -10 -2 -10 4 0 5 -13 12 -30 16 -16 4 -30
10 -30 14 0 15 -67 40 -78 29 -13 -13 -46 -2 -37 12 3 5 1 10 -4 10 -6 0 -11
-4 -11 -9z"/>
<path d="M113 1098 c3 -9 1 -19 -6 -21 -7 -2 0 -4 14 -4 15 0 26 5 26 13 0 8
-3 12 -5 9 -3 -3 -12 1 -20 8 -13 10 -15 9 -9 -5z"/>
<path d="M703 1093 c15 -2 39 -2 55 0 15 2 2 4 -28 4 -30 0 -43 -2 -27 -4z"/>
<path d="M1976 1088 c3 -4 14 -8 25 -8 10 0 19 -5 19 -11 0 -6 -8 -8 -19 -4
-11 3 -25 0 -32 -8 -8 -8 -23 -12 -34 -10 -16 4 -17 3 -6 -5 8 -6 36 -8 61 -5
32 4 56 0 78 -11 18 -9 32 -14 32 -11 0 3 8 2 18 -4 12 -6 21 -4 31 6 11 12
11 14 0 12 -26 -5 -98 13 -110 27 -15 18 11 20 30 2 11 -11 12 -10 6 1 -7 12
-1 13 31 7 21 -4 50 -7 64 -7 20 1 22 -1 10 -10 -12 -8 -10 -9 8 -4 12 4 22 2
22 -4 0 -14 73 -33 95 -25 9 4 20 2 24 -5 4 -6 25 -14 47 -17 26 -4 35 -3 25
4 -11 8 -11 10 0 15 8 2 3 5 -11 6 -14 1 -53 4 -87 7 -58 5 -62 7 -53 25 6 10
7 19 3 20 -4 1 -24 3 -43 4 -19 2 -48 7 -65 11 -41 10 -175 12 -169 2z"/>
<path d="M2386 1091 c6 -7 43 -22 83 -35 39 -12 68 -26 64 -31 -5 -5 3 -2 17
7 14 8 40 19 58 23 46 10 34 16 -35 20 -32 1 -67 4 -78 6 -12 3 -19 -1 -17 -9
1 -9 -8 -8 -35 4 -64 27 -69 28 -57 15z"/>
<path d="M74 1072 c5 -9 1 -15 -13 -19 -12 -3 -21 -9 -21 -14 0 -11 -23 -7
-32 6 -4 6 -8 2 -8 -7 0 -28 55 -27 82 2 16 17 16 19 1 32 -14 10 -15 10 -9 0z"/>
<path d="M170 1064 c0 -5 6 -16 13 -24 6 -8 2 -6 -10 4 -12 10 -27 16 -34 14
-6 -2 1 -12 16 -22 23 -15 32 -16 47 -7 10 6 24 9 30 5 7 -4 8 -3 4 4 -4 7
-15 12 -25 12 -9 0 -22 5 -29 12 -7 7 -12 8 -12 2z"/>
<path d="M2980 1045 c0 -18 -5 -25 -20 -25 -11 0 -20 -4 -20 -9 0 -6 -12 -6
-29 -1 -16 4 -52 8 -80 8 -28 1 -55 3 -60 6 -5 4 -7 -3 -4 -13 4 -15 0 -20
-15 -18 -11 0 -20 6 -19 12 1 5 -4 9 -11 7 -8 -1 -11 1 -9 5 3 5 -1 17 -9 28
-12 16 -14 17 -14 2 0 -28 -2 -31 -22 -45 -10 -8 -29 -35 -41 -60 -15 -30 -29
-46 -38 -44 -9 1 -24 -8 -35 -19 l-19 -22 28 18 c27 17 32 14 28 -22 -3 -20
19 -25 25 -6 18 54 28 73 43 78 9 2 21 13 28 24 10 17 9 18 -10 14 -22 -5 -22
-5 -2 10 21 15 80 12 70 -3 -3 -5 -1 -11 5 -15 5 -3 10 -1 10 4 0 6 11 11 25
11 14 0 25 4 25 9 0 6 9 9 20 8 11 -1 20 -7 20 -14 0 -10 6 -9 25 3 17 11 25
13 25 4 0 -7 6 -10 14 -7 7 3 26 -3 41 -13 31 -21 45 -18 45 8 0 15 -2 15 -10
2 -8 -13 -10 -12 -10 3 0 9 -8 17 -17 17 -15 0 -16 2 -3 10 20 13 33 13 25 0
-3 -5 -2 -10 3 -10 5 0 9 18 9 40 0 22 -4 40 -9 40 -4 0 -8 -11 -8 -25z"/>
<path d="M624 1052 c3 -5 26 -10 51 -10 29 -2 44 2 40 8 -3 5 -26 10 -51 10
-25 0 -43 -4 -40 -8z"/>
<path d="M95 1019 c1 -21 33 -59 49 -59 6 0 5 4 -3 9 -9 6 -10 11 -2 15 6 4
11 12 11 18 0 7 -5 6 -14 -1 -11 -9 -16 -9 -22 0 -5 8 -3 9 7 4 11 -7 12 -6 2
7 -7 8 -11 17 -8 20 3 2 -1 5 -8 5 -7 0 -13 -8 -12 -18z"/>
<path d="M1290 1030 c-19 -4 -21 -7 -9 -12 9 -3 22 -2 30 2 19 13 8 18 -21 10z"/>
<path d="M2557 1024 c-3 -4 0 -13 8 -20 16 -16 29 -19 20 -4 -3 6 0 10 7 10 9
0 9 3 -2 10 -18 11 -24 12 -33 4z"/>
<path d="M2445 1000 c-3 -4 6 -10 20 -12 14 -3 25 -2 25 2 0 11 -39 20 -45 10z"/>
<path d="M1545 989 c26 -10 63 -11 68 -1 3 4 -16 7 -41 8 -32 1 -41 -1 -27 -7z"/>
<path d="M166 975 c5 -11 0 -18 -15 -22 -21 -5 -21 -5 -1 -30 10 -13 18 -30
16 -36 -1 -7 -1 -9 1 -5 2 4 10 6 16 4 7 -1 9 -1 6 1 -3 2 -4 14 -2 27 3 13 0
27 -6 30 -5 4 -8 13 -5 20 3 8 1 17 -5 21 -7 4 -8 0 -5 -10z"/>
<path d="M35 962 c4 -12 3 -13 -9 -3 -12 10 -15 9 -13 -8 0 -11 5 -17 9 -15 5
3 11 -1 14 -10 3 -8 12 -12 19 -10 10 4 11 12 5 29 -5 13 -7 25 -4 27 2 3 -3
5 -11 5 -10 0 -14 -6 -10 -15z"/>
<path d="M2365 962 c5 -16 3 -23 -7 -21 -24 3 -38 -1 -38 -11 0 -5 25 -10 56
-10 39 0 53 -3 48 -12 -4 -7 -3 -8 4 -4 18 11 3 34 -19 29 -10 -3 -19 -1 -19
4 0 5 -7 18 -16 29 -15 18 -15 18 -9 -4z"/>
<path d="M193 962 c4 -5 27 -17 52 -25 39 -14 45 -14 45 -1 0 24 16 16 45 -22
26 -34 26 -36 9 -49 -18 -13 -18 -14 1 -30 20 -16 20 -16 -2 -12 -26 6 -29 1
-9 -18 8 -9 17 -10 25 -4 6 5 9 6 6 3 -3 -4 3 -14 13 -23 22 -21 26 -41 7 -41
-8 0 -15 5 -15 10 0 6 -10 10 -23 10 -13 0 -27 4 -33 10 -5 5 -27 10 -49 11
-22 1 -46 7 -54 13 -11 9 -13 8 -9 -4 3 -8 -1 -23 -10 -32 -14 -16 -13 -18 6
-18 15 0 20 5 16 15 -5 12 3 15 41 15 25 0 44 -4 41 -9 -7 -11 67 -33 128 -37
45 -3 79 -14 43 -14 -10 0 -17 -8 -18 -17 0 -15 -2 -15 -7 -3 -4 8 -11 16 -17
17 -5 1 -18 5 -27 8 -10 4 -18 3 -18 -3 0 -6 9 -14 20 -17 11 -3 20 -12 20
-18 0 -7 13 -12 29 -12 21 -1 27 3 23 13 -3 8 2 19 11 24 14 7 14 12 5 28 -9
14 -14 16 -20 7 -6 -9 -8 -9 -8 1 0 7 -5 10 -10 7 -6 -3 -13 1 -16 9 -3 9 -10
14 -14 11 -4 -2 -16 5 -26 16 -23 25 -27 96 -7 103 8 3 11 1 8 -4 -3 -6 -1
-10 4 -10 6 0 11 7 11 15 0 11 -7 14 -24 11 -18 -3 -26 2 -34 20 -6 13 -7 26
-2 29 4 3 11 -1 13 -7 3 -8 6 -6 6 4 1 15 -9 17 -79 17 -44 0 -85 3 -91 7 -7
4 -9 3 -6 -4z"/>
<path d="M827 957 c-1 -4 -34 -12 -72 -18 -39 -6 -71 -12 -72 -13 -7 -6 -13
-76 -7 -76 5 0 20 16 33 35 13 19 30 35 38 35 11 0 8 -6 -8 -20 -19 -15 -21
-19 -7 -20 9 0 23 7 31 15 8 8 24 12 36 10 13 -2 21 1 21 10 0 10 17 12 73 11
97 -4 95 -4 100 -23 4 -17 5 -17 6 0 0 9 5 17 11 17 5 0 8 -12 6 -27 l-3 -28
63 3 63 4 3 -34 c4 -48 -19 -91 -46 -84 -11 3 -24 6 -28 6 -5 0 -8 5 -8 10 0
6 12 11 28 11 22 1 23 2 5 6 -22 4 -39 35 -28 52 3 5 1 12 -4 15 -4 3 -12 -18
-15 -46 -8 -61 -2 -67 69 -69 40 -1 45 -3 25 -9 -14 -4 -46 -8 -72 -9 l-48 -1
-1 68 c-1 65 -1 66 -10 23 -4 -24 -14 -55 -20 -70 -12 -26 -15 -27 -77 -25
-36 2 -68 8 -72 14 -5 7 -10 3 -15 -12 l-8 -23 -4 25 c-6 34 -23 50 -23 22 0
-24 -15 -27 -82 -16 -44 8 -51 24 -10 25 15 0 36 4 47 9 20 8 20 9 -1 9 -17 1
-20 6 -16 26 3 19 0 25 -12 25 -13 0 -15 4 -6 19 16 31 11 38 -9 14 -10 -12
-21 -20 -24 -16 -6 6 -13 -18 -21 -83 l-6 -41 51 -17 c28 -9 64 -16 80 -16
l29 0 0 -66 c0 -65 0 -66 -24 -62 -16 3 -27 0 -30 -9 -10 -25 -7 -43 8 -43 7
0 19 -7 27 -16 11 -14 9 -15 -24 -10 -20 3 -53 8 -72 11 -43 7 -59 31 -75 110
-7 33 -16 65 -22 72 -6 7 -5 14 2 18 6 3 8 10 5 15 -8 13 6 41 17 34 6 -4 5 3
-2 15 -10 19 -14 20 -28 9 -12 -8 -11 -5 3 11 11 14 15 21 8 18 -6 -4 -13 -1
-16 5 -3 10 -9 9 -22 -3 -16 -16 -16 -18 4 -38 12 -12 21 -33 20 -48 0 -16 -3
-22 -6 -15 -2 6 -10 9 -16 5 -6 -4 -8 0 -4 10 3 10 2 17 -3 17 -5 0 -6 7 -3
17 4 11 3 14 -5 9 -8 -5 -10 -1 -5 10 5 14 2 16 -21 10 -18 -4 -25 -3 -21 4 4
6 -8 10 -32 9 l-38 0 40 -15 c43 -16 62 -31 67 -54 4 -19 24 -40 37 -40 6 0
12 -3 12 -7 10 -58 11 -70 6 -118 -1 -11 -11 -21 -22 -23 -20 -3 -20 -3 -1 13
11 8 16 15 10 16 -5 0 -17 2 -26 4 -11 2 -15 -3 -13 -14 2 -14 -3 -16 -26 -13
-16 2 -32 8 -35 13 -3 5 -13 9 -22 9 -15 0 -15 -2 -2 -10 13 -8 12 -10 -3 -10
-10 0 -16 -4 -13 -9 3 -4 17 -6 31 -4 37 8 72 -4 78 -27 3 -10 0 -18 -5 -17
-6 1 -12 -3 -15 -10 -3 -8 6 -10 26 -7 18 3 31 1 31 -5 0 -6 4 -11 8 -11 5 0
8 18 8 40 -1 45 10 52 24 16 10 -26 47 -40 85 -30 21 5 25 3 25 -15 0 -15 6
-21 23 -20 16 1 18 2 5 6 -24 6 -23 23 2 23 11 0 20 -5 20 -11 0 -8 6 -7 16 2
14 12 16 11 13 -6 -3 -11 -10 -21 -17 -21 -6 -1 -20 -2 -29 -3 -23 -2 -49 -18
-42 -26 3 -3 25 2 49 10 49 17 64 19 56 6 -3 -5 -28 -14 -56 -21 -30 -7 -50
-18 -50 -26 0 -10 16 -12 78 -8 42 2 85 7 96 10 11 4 16 2 12 -4 -3 -6 0 -13
6 -15 12 -5 -64 -12 -85 -8 -5 1 -5 -4 -1 -10 5 -9 -4 -10 -34 -5 -27 4 -42 2
-42 -4 0 -6 -6 -8 -12 -4 -9 5 -9 2 1 -9 12 -15 11 -17 -8 -17 -14 0 -20 4
-15 12 5 7 2 9 -9 5 -8 -3 -18 0 -21 8 -3 8 3 16 12 18 13 4 12 5 -4 6 -17 1
-22 -4 -20 -23 0 -13 4 -22 8 -20 4 2 10 -1 14 -7 5 -8 -3 -10 -25 -7 -37 5
-40 1 -8 -13 17 -7 8 -8 -35 -5 -35 3 -58 1 -58 -5 0 -6 5 -7 10 -4 6 3 10 0
10 -7 0 -8 -8 -14 -17 -15 -27 -2 -46 -8 -63 -18 -13 -8 -13 -7 -1 9 13 16 13
17 -5 14 -12 -2 -18 2 -16 10 1 8 -2 11 -8 7 -7 -4 -7 -13 1 -26 10 -19 7 -20
-35 -18 -25 2 -49 -1 -53 -5 -5 -4 -1 -7 7 -6 27 4 41 0 36 -9 -4 -5 -20 -7
-38 -4 -30 4 -31 4 -17 -13 10 -14 7 -13 -14 3 -16 12 -35 19 -43 16 -18 -7
-8 -19 21 -26 11 -3 -15 -5 -57 -6 -48 -1 -78 -5 -78 -12 0 -5 4 -8 8 -5 4 2
14 1 22 -5 10 -6 -1 -9 -37 -9 -53 0 -83 -7 -83 -19 0 -4 7 -8 15 -8 8 0 12 4
9 9 -3 4 2 5 11 2 36 -14 -7 -27 -87 -26 -46 1 -77 -1 -70 -4 6 -3 9 -11 5
-17 -4 -7 2 -5 12 3 10 8 16 10 12 3 -6 -9 3 -11 30 -7 l38 5 -35 -14 c-19 -7
-43 -12 -53 -11 -9 2 -17 -3 -17 -11 0 -12 13 -10 68 9 37 13 99 34 139 47 39
13 69 27 67 31 -3 4 1 5 8 3 7 -3 47 6 87 20 41 14 76 25 78 25 2 0 3 -39 3
-87 1 -75 3 -85 14 -71 7 10 17 14 22 10 4 -4 2 1 -5 11 -12 14 -11 17 3 17 9
0 16 -8 16 -17 0 -12 3 -14 8 -6 5 7 13 9 21 4 10 -7 8 -10 -8 -16 -13 -4 -20
-9 -17 -12 6 -6 113 34 133 49 7 6 16 7 22 4 5 -3 11 -2 13 3 1 4 80 41 173
80 94 40 186 80 205 90 19 10 76 36 125 56 50 21 160 68 245 105 85 38 174 76
197 85 25 10 40 22 36 28 -3 6 -1 7 5 3 10 -6 635 254 628 261 -2 3 -224 -79
-456 -169 -204 -78 -565 -220 -595 -233 -29 -12 -163 -66 -450 -177 -71 -28
-168 -66 -214 -84 -47 -19 -90 -34 -95 -34 -6 0 -11 16 -12 35 0 19 4 35 10
35 6 0 5 5 -2 12 -19 19 -14 33 11 36 42 3 227 68 220 77 -5 4 -3 5 3 2 6 -4
76 15 155 42 79 27 293 99 474 161 497 168 475 160 475 182 0 16 -5 19 -22 14
-13 -3 -26 -6 -30 -6 -4 0 -5 -7 -2 -15 4 -8 1 -15 -5 -15 -6 0 -11 6 -11 13
-1 6 -10 1 -20 -12 -11 -13 -20 -19 -20 -14 0 5 5 14 11 20 8 8 8 13 0 18 -6
3 -14 -2 -18 -12 -12 -33 -77 -71 -127 -75 -14 -1 -22 -6 -20 -10 3 -4 0 -8
-5 -8 -6 0 -11 9 -11 21 0 18 4 20 25 15 19 -5 25 -2 26 11 0 16 1 16 7 2 6
-15 9 -15 37 0 17 9 31 22 32 29 4 15 11 16 -75 -8 -71 -20 -112 -47 -112 -74
0 -8 -7 -17 -16 -20 -13 -5 -15 -2 -11 14 6 25 0 25 -94 1 -41 -11 -83 -19
-94 -18 -13 1 -21 -5 -23 -18 -3 -21 -9 -22 -127 -28 -38 -2 -40 -1 -49 36
l-10 37 -113 0 -113 0 0 65 0 65 80 0 79 0 4 -62 3 -63 2 63 2 62 38 0 c35 0
83 9 129 24 18 6 21 4 16 -14 -4 -14 -8 -18 -13 -10 -5 8 -12 6 -25 -6 -16
-17 -16 -18 4 -26 23 -8 27 -23 9 -34 -6 -4 -17 1 -24 10 -11 16 -13 16 -19
-4 -9 -29 -2 -34 32 -23 49 17 56 47 43 196 -6 73 -15 135 -18 139 -4 4 -44
10 -90 14 -45 4 -82 10 -82 13 0 9 -160 7 -163 -2z m318 -62 c-25 -8 -115 -11
-115 -4 0 5 28 9 63 8 34 0 58 -2 52 -4z m-464 -128 c-8 -8 -11 -4 -11 14 0
33 14 47 18 19 2 -12 -1 -27 -7 -33z m834 -206 c-3 -12 -11 -21 -16 -21 -6 0
-8 3 -6 8 2 4 7 16 11 26 9 25 20 13 11 -13z m-478 -37 c0 -12 -20 -14 -126
-9 -69 3 -128 5 -131 6 -3 0 4 4 15 9 11 4 70 8 131 8 90 0 111 -2 111 -14z
m363 -3 c0 -10 -9 -21 -20 -24 -14 -4 -20 0 -20 12 0 21 9 31 27 31 7 0 13 -8
13 -19z m-800 -21 c0 -5 -10 -10 -22 -10 -19 0 -20 2 -8 10 19 13 30 13 30 0z
m710 0 c0 -19 -5 -25 -18 -22 -8 2 -11 -1 -8 -6 4 -6 -3 -8 -16 -4 -18 5 -19
7 -6 10 10 2 15 9 11 18 -3 9 2 14 16 14 12 0 21 -4 21 -10z m-340 -11 c0 -5
-5 -11 -10 -14 -6 -4 -8 -11 -5 -16 4 -5 0 -9 -8 -9 -8 0 -17 9 -20 20 -3 11
-12 20 -21 20 -27 0 -16 -44 12 -46 25 -2 29 -4 29 -19 0 -11 -12 -15 -49 -15
-41 0 -48 3 -48 19 0 11 -4 22 -9 25 -8 5 -8 20 -2 44 2 6 131 -3 131 -9z m63
-19 c8 -11 16 -17 19 -14 3 3 9 1 13 -5 3 -6 1 -11 -5 -11 -6 0 -9 -4 -6 -9 7
-11 -42 -31 -71 -29 -15 2 -19 6 -12 14 5 6 7 18 4 26 -6 15 18 48 35 48 5 0
15 -9 23 -20z m207 -10 c0 -13 -11 -13 -30 0 -12 8 -11 10 8 10 12 0 22 -4 22
-10z m-63 -14 c10 -10 1 -14 -47 -21 -44 -7 -44 -6 -27 13 17 19 59 23 74 8z
m187 -67 c-34 -13 -51 -16 -59 -8 -7 7 -5 10 5 8 23 -3 71 12 65 21 -3 5 5 6
16 3 18 -5 13 -9 -27 -24z m-364 -151 c0 -5 -4 -6 -10 -3 -5 3 -10 2 -10 -3 0
-5 -11 -14 -25 -20 -21 -10 -25 -9 -25 3 0 9 9 15 21 15 14 0 19 5 16 14 -4
10 0 12 14 9 10 -3 19 -10 19 -15z m-146 -43 c-28 -22 -40 -18 -13 4 13 11 26
17 28 15 3 -2 -4 -11 -15 -19z m66 10 c0 -6 -56 -35 -67 -35 -9 0 48 38 60 39
4 1 7 -1 7 -4z m-124 -50 c28 5 28 5 4 -5 -14 -7 -29 -12 -35 -13 -5 -1 -13
-6 -17 -12 -4 -5 -11 -6 -15 -1 -4 5 -2 11 5 13 6 3 12 12 12 21 0 13 2 14 9
4 5 -8 18 -11 37 -7z m-76 -30 c0 -1 -6 -8 -14 -14 -12 -10 -17 -8 -25 7 -9
17 -7 18 14 14 14 -2 25 -6 25 -7z m-40 -24 c7 -1 -50 -31 -59 -31 -3 0 1 5 9
11 12 9 11 10 -7 6 -13 -3 -26 0 -30 5 -3 6 -2 8 3 5 6 -3 16 -2 24 3 8 5 24
7 35 5 11 -2 22 -4 25 -4z m-70 -40 c3 -2 -3 -1 -12 2 -10 4 -18 2 -18 -2 0
-5 -6 -11 -13 -14 -8 -3 -14 1 -14 9 0 7 4 11 8 8 4 -2 10 0 13 5 11 17 -10
21 -30 6 -10 -8 -23 -15 -27 -15 -15 0 5 21 27 30 19 7 27 4 66 -29z"/>
<path d="M968 523 c12 -2 30 -2 40 0 9 3 -1 5 -23 4 -22 0 -30 -2 -17 -4z"/>
<path d="M858 453 c6 -2 10 -9 6 -14 -3 -5 -1 -9 5 -9 17 0 21 18 5 24 -9 3
-19 6 -22 5 -4 0 -1 -3 6 -6z"/>
<path d="M2424 962 c2 -4 35 -9 73 -10 37 -2 65 -1 61 3 -9 9 -140 16 -134 7z"/>
<path d="M76 946 c3 -8 12 -17 20 -20 8 -3 14 -10 14 -16 0 -6 -4 -8 -10 -5
-18 11 -10 -22 10 -40 19 -17 20 -17 20 -1 0 10 5 15 13 11 6 -4 4 0 -5 8 -10
8 -18 18 -18 23 -1 11 -36 54 -44 54 -3 0 -3 -6 0 -14z"/>
<path d="M394 952 c-21 -15 -11 -41 17 -47 16 -4 29 -13 29 -20 0 -20 14 -25
30 -13 12 8 12 9 -2 4 -12 -3 -18 0 -18 9 0 12 5 12 26 4 24 -8 25 -8 14 6 -7
8 -18 15 -26 15 -7 0 -25 5 -41 11 -21 8 -24 12 -13 19 8 5 17 5 20 1 3 -4 19
-11 37 -14 27 -5 31 -4 26 11 -5 14 -4 15 8 6 19 -15 54 -15 39 0 -12 12 -131
18 -146 8z"/>
<path d="M578 952 c-10 -2 -18 -8 -18 -13 0 -13 14 -11 28 3 9 9 12 8 12 -6 0
-12 5 -16 15 -12 9 3 15 0 15 -9 0 -18 -23 -32 -28 -17 -2 7 -13 12 -25 12
-20 0 -21 0 -1 -16 10 -8 13 -13 7 -9 -7 3 -13 1 -13 -6 0 -7 10 -9 25 -7 20
4 25 1 26 -16 1 -11 7 1 13 29 8 34 19 53 34 61 19 10 16 11 -25 10 -27 -1
-56 -2 -65 -4z"/>
<path d="M2810 940 c0 -6 -7 -10 -16 -8 -10 2 -19 -3 -21 -9 -3 -7 0 -13 7
-13 6 0 8 -4 5 -10 -3 -5 -2 -10 2 -10 5 0 21 -11 36 -25 19 -18 27 -21 27
-11 0 8 -6 17 -12 20 -7 4 -4 5 8 2 12 -2 21 2 21 9 0 9 -11 12 -34 9 -37 -5
-41 1 -17 27 10 11 12 19 5 24 -6 3 -11 1 -11 -5z"/>
<path d="M1216 928 c4 -6 6 -31 5 -55 -1 -28 3 -42 9 -38 6 3 10 -4 10 -17 0
-13 3 -34 5 -48 5 -22 4 -23 -5 -5 -7 15 -9 5 -4 -38 5 -56 -10 -157 -24 -157
-4 0 -7 -11 -7 -25 0 -36 16 -30 46 18 49 78 69 126 68 164 -1 22 -3 30 -6 18
-7 -26 -53 -81 -53 -63 0 7 -3 23 -6 35 -5 18 -3 21 14 16 30 -7 32 7 11 82
-23 86 -24 81 3 88 28 8 31 2 53 -94 10 -43 21 -79 24 -79 3 0 12 4 20 9 13 8
12 20 -6 85 -19 72 -19 76 -2 76 18 0 21 -7 50 -123 11 -44 9 -94 -5 -157 -5
-21 -4 -21 8 5 9 17 15 42 16 58 0 18 5 27 16 27 13 0 15 -7 10 -37 -4 -27 -3
-32 4 -18 5 11 9 36 9 55 -1 19 -3 29 -6 23 -13 -33 -31 -6 -51 78 -12 51 -21
94 -18 96 2 2 11 -28 21 -67 9 -38 21 -73 26 -76 13 -8 11 16 -7 75 -8 29 -13
55 -11 57 3 3 13 -25 22 -61 10 -36 22 -65 26 -65 12 0 11 8 -7 69 -8 29 -13
55 -10 58 15 16 34 -12 46 -66 12 -58 24 -80 37 -67 3 3 0 27 -7 53 -22 85
-23 90 -11 73 6 -8 16 -41 22 -72 7 -37 17 -58 25 -58 16 0 17 10 5 42 -4 13
-11 40 -15 60 -6 32 -4 37 12 35 14 -1 18 -7 15 -26 -3 -24 -2 -24 7 -6 8 16
9 11 5 -20 -4 -26 -2 -35 3 -26 11 15 9 -96 -2 -144 -7 -27 -6 -28 6 -10 7 11
12 45 12 76 1 48 3 55 18 51 15 -4 16 0 2 50 -7 29 -14 54 -14 56 0 1 7 2 15
2 9 0 18 -19 26 -59 11 -51 15 -58 36 -58 13 0 23 0 23 1 0 0 -7 26 -15 56
-14 54 -12 77 5 50 7 -10 10 -11 10 -2 0 6 5 12 10 12 7 0 7 -6 0 -20 -8 -14
-8 -32 1 -62 11 -43 6 -113 -11 -133 -6 -7 -2 -11 13 -12 12 0 17 1 11 3 -7 3
-10 14 -7 24 3 11 8 18 12 16 3 -2 4 16 2 40 -2 27 1 44 8 44 6 0 11 5 11 11
0 8 -5 8 -15 -1 -12 -10 -15 -10 -15 4 0 9 5 16 10 16 7 0 8 13 4 35 -11 58
13 40 27 -20 13 -57 15 -60 36 -47 10 6 10 17 3 42 -12 42 -13 63 -2 56 5 -3
14 -31 21 -62 10 -45 10 -65 1 -100 -7 -25 -17 -47 -21 -50 -11 -6 -12 -44 -1
-44 47 1 62 24 40 59 -9 15 -9 26 -1 44 9 19 8 38 -3 79 -18 68 -18 79 1 72
10 -4 13 -13 9 -26 -4 -13 -2 -18 4 -14 10 6 22 -15 22 -37 0 -7 -4 -6 -10 3
-8 13 -10 12 -10 -2 0 -10 7 -18 16 -18 16 0 16 11 -1 68 -5 13 -3 22 3 22 6
0 13 -8 15 -17 4 -16 5 -16 6 -1 1 13 13 16 72 17 40 0 74 3 77 6 3 3 -43 5
-101 5 -69 0 -107 4 -107 11 0 5 -5 7 -10 4 -12 -7 -361 -7 -425 0 -22 3 -75
5 -117 6 -43 1 -78 5 -78 10 0 5 -5 9 -11 9 -5 0 -7 -5 -3 -12z m602 -93 c0
-16 -2 -15 -8 5 -11 34 -11 60 0 35 5 -11 8 -29 8 -40z m-538 -189 c0 -8 -5
-18 -10 -21 -6 -4 -8 -10 -6 -14 6 -9 -11 -37 -18 -30 -8 8 14 79 24 79 6 0
10 -6 10 -14z"/>
<path d="M2737 931 c-17 -6 -17 -8 2 -25 12 -11 21 -14 21 -8 0 7 -5 12 -11
12 -8 0 -8 5 1 15 14 17 13 17 -13 6z"/>
<path d="M2863 926 c0 -6 18 -12 39 -13 21 -2 38 2 38 7 0 5 -7 7 -15 4 -8 -4
-15 -2 -15 2 0 5 -11 10 -23 10 -13 1 -24 -3 -24 -10z"/>
<path d="M305 920 c6 -10 3 -12 -13 -8 -23 7 -30 -6 -9 -16 6 -4 2 -4 -11 -2
-12 2 -20 0 -16 -5 7 -13 -10 -11 -23 2 -8 8 -14 5 -22 -10 -11 -20 -3 -29 12
-14 10 9 68 10 74 1 2 -5 11 -8 20 -8 13 0 13 3 3 15 -7 8 -10 21 -7 30 4 8 1
17 -5 21 -7 5 -8 2 -3 -6z"/>
<path d="M2671 916 c-7 -9 -8 -16 -2 -20 5 -4 12 -2 16 4 4 6 11 7 17 4 6 -4
9 -1 6 6 -6 20 -23 23 -37 6z"/>
<path d="M6 901 c-4 -6 -3 -18 3 -25 6 -7 9 -16 6 -20 -3 -3 0 -2 7 4 8 6 8
16 1 32 -7 15 -12 18 -17 9z"/>
<path d="M510 891 c0 -26 15 -35 37 -22 12 7 13 10 4 11 -7 0 -11 6 -7 15 4
10 -1 15 -14 15 -13 0 -20 -7 -20 -19z"/>
<path d="M2960 905 c0 -2 9 -9 20 -15 16 -9 20 -8 20 5 0 8 -9 15 -20 15 -11
0 -20 -2 -20 -5z"/>
<path d="M38 864 c4 -28 2 -35 -8 -29 -8 5 -5 -4 6 -18 21 -29 50 -37 40 -11
-3 9 -6 22 -6 30 0 9 -4 12 -10 9 -5 -3 -10 -2 -10 4 0 5 6 11 13 14 9 3 9 7
-2 20 -21 26 -27 20 -23 -19z"/>
<path d="M2090 882 c6 -12 9 -37 7 -55 -2 -17 -2 -24 0 -14 7 26 22 20 19 -8
-2 -13 1 -22 5 -19 5 3 9 19 9 35 0 18 -4 28 -10 24 -5 -3 -10 0 -10 7 0 8 -7
23 -16 34 -14 18 -15 18 -4 -4z"/>
<path d="M2892 887 c-6 -7 -7 -18 -3 -26 7 -10 10 -10 16 -1 6 9 9 9 15 0 5
-8 9 -8 13 3 4 12 0 14 -20 11 -23 -4 -25 -3 -13 11 7 8 10 15 7 15 -2 0 -9
-6 -15 -13z"/>
<path d="M2130 880 c0 -5 7 -7 15 -4 17 7 20 -7 5 -22 -6 -6 -6 -20 0 -39 10
-30 10 -30 6 -2 -3 23 0 27 20 27 16 0 24 6 24 16 0 14 -3 14 -15 4 -12 -10
-15 -10 -15 4 0 23 47 21 60 -3 11 -22 45 -18 54 6 3 8 1 11 -4 8 -6 -3 -10
-1 -10 4 0 7 -27 11 -70 11 -38 0 -70 -4 -70 -10z"/>
<path d="M2011 865 c0 -11 4 -27 9 -35 9 -13 10 -13 9 0 0 8 -4 24 -9 35 -9
20 -9 20 -9 0z"/>
<path d="M2061 862 c-1 -13 -5 -20 -11 -17 -5 3 -10 -3 -10 -14 0 -11 -8 -22
-17 -24 -16 -4 -16 -5 1 -6 13 -1 17 -6 13 -21 -3 -11 -1 -18 4 -14 5 3 9 11
9 19 0 7 8 16 18 18 16 4 16 5 0 6 -10 0 -18 6 -18 12 0 6 7 9 15 5 17 -6 18
8 5 39 -8 19 -9 19 -9 -3z"/>
<path d="M1956 843 c8 -32 12 -39 19 -31 9 8 -6 58 -16 58 -5 0 -6 -12 -3 -27z"/>
<path d="M1986 838 c5 -32 3 -37 -18 -41 -23 -4 -23 -4 0 -6 26 -1 25 1 11
-40 -11 -30 -20 -35 -64 -32 -14 1 -11 -3 10 -13 35 -17 32 -19 -11 -7 -29 8
-30 7 -26 -15 2 -13 5 -24 6 -24 24 3 150 51 156 60 4 7 9 8 11 3 2 -5 82 16
178 48 95 31 169 59 164 62 -5 3 -28 5 -51 4 -23 0 -36 -5 -29 -9 6 -4 8 -11
3 -15 -4 -4 -14 1 -23 12 -15 20 -15 20 -11 0 3 -17 -3 -20 -34 -20 -20 0 -34
-4 -30 -9 3 -5 -2 -7 -11 -3 -9 3 -17 2 -19 -4 -2 -5 -14 -11 -26 -14 -44 -8
-62 -16 -57 -26 3 -5 -1 -6 -9 -3 -9 3 -16 11 -16 18 0 6 -6 4 -13 -5 -7 -8
-28 -16 -48 -16 l-36 -1 4 42 c3 22 0 52 -6 66 -9 22 -10 21 -5 -12z"/>
<path d="M240 849 c0 -9 70 -17 76 -8 2 4 -14 9 -36 11 -22 2 -40 1 -40 -3z"/>
<path d="M155 837 c11 -6 22 -12 25 -12 3 0 14 -6 25 -12 11 -6 23 -11 28 -12
4 -1 9 -2 12 -2 3 -1 18 -2 34 -3 34 -1 31 20 -4 27 -14 2 -22 1 -19 -4 2 -4
-4 -7 -15 -6 -11 0 -22 9 -24 19 -6 20 -37 25 -37 6 0 -9 -3 -9 -12 0 -7 7
-17 12 -22 12 -6 0 -2 -6 9 -13z"/>
<path d="M523 843 c4 -3 2 -12 -4 -20 -6 -7 -8 -13 -4 -13 4 0 14 8 22 18 8 9
12 11 8 5 -3 -7 0 -13 7 -14 7 0 0 -7 -17 -14 -23 -11 -25 -14 -10 -14 21 0
51 18 54 34 1 5 -6 12 -16 16 -23 10 -48 11 -40 2z"/>
<path d="M91 836 c2 -2 14 -9 26 -15 18 -9 22 -9 18 2 -3 7 -15 13 -26 14 -12
1 -20 1 -18 -1z"/>
<path d="M393 825 c0 -8 4 -12 8 -9 4 2 10 -5 14 -16 4 -11 11 -18 16 -14 5 3
6 11 2 17 -5 8 -2 8 9 -1 13 -10 18 -9 29 5 10 12 10 14 1 9 -7 -4 -26 0 -44
8 -38 19 -35 19 -35 1z"/>
<path d="M2425 808 c-38 -16 -75 -26 -83 -23 -7 2 -11 1 -8 -4 3 -5 -45 -30
-107 -56 -61 -27 -117 -54 -123 -62 -7 -8 -16 -13 -20 -11 -16 4 -54 -13 -49
-22 3 -5 -3 -8 -14 -7 -10 0 -37 -7 -59 -17 -30 -14 -39 -23 -34 -35 5 -13 3
-14 -10 -3 -13 10 -50 -4 -229 -87 -221 -102 -332 -153 -538 -248 -41 -19 -80
-32 -87 -29 -8 3 -13 0 -11 -6 1 -7 -90 -54 -203 -106 -116 -53 -190 -91 -170
-89 19 3 71 22 115 43 44 21 82 39 85 39 15 4 72 31 219 103 91 45 168 79 173
76 4 -3 8 -1 8 4 0 5 7 9 15 9 8 0 12 -4 9 -8 -6 -11 30 -21 50 -13 9 3 16 12
16 20 0 7 9 19 20 27 11 8 17 16 14 20 -3 3 10 9 30 12 20 4 36 11 36 15 0 4
14 13 31 19 28 10 30 9 18 -6 -8 -9 -29 -22 -46 -30 -18 -7 -33 -15 -33 -18 0
-2 12 0 28 7 35 14 105 22 99 10 -3 -4 -24 -17 -46 -28 -23 -10 -41 -22 -41
-26 0 -5 -15 -8 -34 -8 -40 0 -56 -15 -25 -23 13 -4 46 9 92 37 196 116 315
178 253 131 -41 -31 -28 -43 40 -37 45 3 69 0 82 -9 15 -12 15 -12 5 1 -10 13
-4 15 40 17 36 2 47 -1 37 -7 -12 -8 -10 -10 8 -10 14 0 21 4 17 11 -4 6 2 5
14 -3 22 -14 28 -28 10 -28 -5 0 -7 -5 -4 -10 3 -6 -1 -10 -10 -10 -9 0 -13
-4 -10 -10 3 -6 1 -10 -5 -10 -6 0 -8 -5 -5 -10 3 -6 2 -10 -4 -10 -12 0 -61
-47 -61 -59 0 -5 -10 -11 -22 -15 -19 -5 -20 -8 -8 -16 11 -7 40 17 128 108
62 64 108 107 102 94 -6 -12 -8 -28 -4 -34 5 -7 2 -9 -9 -5 -11 4 -47 -27
-124 -111 -138 -149 -213 -234 -213 -243 0 -11 64 -2 68 10 2 6 -3 9 -12 5
-26 -10 -18 8 22 53 20 22 47 52 59 66 15 18 28 24 42 20 12 -3 21 -1 21 6 0
5 -7 8 -15 5 -30 -12 -13 13 66 96 44 47 71 70 58 53 -42 -60 -12 -44 51 27
34 39 65 68 68 66 3 -3 -1 -14 -9 -23 -13 -16 -12 -17 4 -4 10 8 16 20 13 27
-5 12 59 96 140 187 32 35 53 50 39 27 -4 -6 10 -10 33 -10 26 0 42 -5 46 -15
3 -8 9 -14 13 -13 4 1 26 -6 47 -15 22 -10 41 -15 44 -12 3 3 0 5 -6 5 -7 0
-12 5 -12 11 0 6 7 8 16 5 9 -4 13 -2 8 5 -10 16 -111 59 -138 59 -14 0 -26 5
-28 11 -6 18 -50 -10 -89 -56 -19 -22 -67 -78 -108 -125 -41 -47 -76 -87 -77
-89 -2 -2 -2 7 -2 20 1 16 35 59 97 124 133 138 212 225 175 192 -17 -15 -43
-28 -60 -28 -16 -1 -22 -3 -11 -6 9 -2 17 -8 17 -13 0 -19 -44 -31 -103 -30
-80 3 -84 2 -90 -12 -3 -10 13 -12 67 -10 l71 3 -129 -125 c-97 -94 -133 -123
-143 -115 -14 12 -120 16 -178 6 -28 -5 -34 -4 -20 2 18 9 18 10 -6 10 -15 1
-29 8 -32 15 -4 11 20 29 81 62 71 39 83 49 67 55 -16 6 -14 8 10 7 17 -1 45
7 63 17 l33 20 -33 11 c-30 10 -30 11 -10 16 12 4 20 3 17 -2 -3 -4 7 -10 20
-13 24 -4 44 7 28 16 -5 2 -2 2 5 1 6 -2 19 -1 28 3 13 5 13 8 2 15 -9 7 -8 8
5 4 26 -8 41 2 27 19 -9 11 -7 12 8 8 11 -2 51 11 90 31 77 39 87 42 76 24 -4
-7 -3 -8 5 -4 6 4 8 12 5 18 -5 8 -1 9 10 5 10 -4 15 -3 11 3 -3 5 3 14 14 19
29 16 39 13 17 -4 -11 -8 -16 -15 -10 -15 5 0 18 7 28 15 11 8 28 15 38 15 10
0 18 5 18 11 0 6 9 9 20 6 11 -3 23 -1 26 4 3 5 -3 9 -12 9 -24 0 -15 6 21 14
l30 8 -24 -26 c-14 -14 -27 -24 -29 -21 -11 11 -30 -17 -24 -37 3 -14 1 -19
-6 -14 -6 3 -14 1 -18 -5 -4 -8 -3 -9 4 -5 7 4 12 2 12 -3 0 -6 -9 -11 -19
-11 -11 0 -22 -4 -25 -9 -8 -12 19 -22 30 -11 5 4 36 0 69 -10 32 -11 61 -17
63 -15 10 10 -13 24 -57 36 -40 10 -48 15 -41 28 5 9 11 24 14 34 3 9 15 17
26 17 14 0 19 4 14 12 -7 11 30 8 69 -7 9 -4 17 -3 17 2 0 5 -17 14 -37 20
-34 10 -36 11 -15 18 33 11 27 20 -16 21 -21 0 -69 -13 -107 -28z m-432 -228
c18 0 19 -2 7 -10 -20 -13 -43 -13 -35 0 3 6 -2 10 -12 10 -15 0 -16 2 -3 10
10 6 16 6 18 0 2 -6 13 -10 25 -10z m-86 -22 c-2 -7 -11 -12 -21 -10 -9 2 -16
-1 -16 -5 0 -5 -10 -9 -22 -10 -18 -1 -16 2 12 17 41 23 53 24 47 8z m-78 -51
c0 -8 -3 -7 -6 2 -4 10 -7 11 -13 1 -5 -7 -19 -14 -32 -15 -17 -2 -22 -7 -20
-21 2 -10 8 -22 14 -25 15 -10 -44 -30 -80 -27 -35 2 -40 12 -18 34 12 12 16
12 23 1 5 -8 17 -11 30 -8 17 5 20 10 13 21 -6 10 -10 11 -10 3 0 -7 -7 -13
-15 -13 -26 0 -16 18 18 31 17 7 37 13 42 13 6 1 16 7 23 14 15 14 32 7 31
-11z m61 3 c-8 -6 -23 -10 -33 -10 -10 0 -16 -4 -13 -9 6 -9 -36 -31 -58 -31
-8 0 -16 6 -19 13 -3 8 6 12 26 13 17 1 36 9 42 17 7 9 15 14 18 11 3 -3 14
-1 24 4 22 13 33 5 13 -8z m-280 -94 c-37 -14 -54 -11 -30 4 8 6 26 9 40 9 22
0 21 -2 -10 -13z m0 -31 c17 1 33 5 37 9 3 3 13 6 21 6 10 0 8 -6 -9 -21 -16
-14 -35 -19 -59 -18 -20 2 -41 0 -48 -5 -13 -8 -16 11 -6 38 5 13 8 13 20 2 7
-8 27 -13 44 -11z m-247 -95 c-5 -20 -23 -26 -37 -13 -5 5 25 29 41 33 0 0 -1
-9 -4 -20z"/>
<path d="M2580 824 c0 -1 7 -10 16 -19 12 -12 19 -13 30 -4 11 9 14 8 14 -4 0
-9 16 -19 44 -26 24 -6 49 -17 56 -26 9 -10 17 -12 30 -5 19 10 50 4 50 -10 0
-12 -30 -21 -43 -14 -7 4 -2 -3 10 -16 22 -23 54 -22 52 2 0 10 -2 10 -6 1 -5
-15 -33 -18 -33 -4 0 5 9 13 20 16 11 4 20 15 20 27 0 14 -5 18 -15 14 -9 -3
-15 0 -15 10 0 12 5 14 18 9 9 -4 27 -10 39 -12 13 -3 20 -10 16 -19 -3 -8 0
-14 5 -14 6 0 23 -11 37 -25 14 -14 25 -25 26 -23 6 25 5 37 -2 32 -5 -3 -13
5 -18 18 -6 17 -4 26 8 35 15 11 15 12 -1 13 -9 0 -20 -5 -23 -10 -5 -8 -11
-7 -21 1 -8 6 -32 13 -54 15 -30 3 -40 0 -40 -11 0 -18 -46 -20 -57 -2 -4 6
-14 12 -20 13 -40 3 -44 5 -37 16 5 7 3 8 -6 3 -7 -4 -15 -3 -19 3 -6 10 -81
24 -81 16z"/>
<path d="M2854 818 c-3 -4 5 -5 17 -3 15 3 23 -2 26 -15 6 -22 11 -24 33 -10
13 8 12 10 -3 10 -10 0 -20 6 -23 14 -6 15 -42 18 -50 4z"/>
<path d="M1926 774 c-4 -20 -5 -38 -2 -41 2 -3 8 11 12 31 3 21 4 39 1 42 -2
3 -8 -11 -11 -32z"/>
<path d="M10 794 c0 -6 11 -20 24 -31 18 -16 27 -18 36 -10 10 9 11 7 5 -12
-5 -16 -4 -21 4 -16 7 4 18 1 26 -5 11 -9 15 -9 15 -1 0 6 7 11 15 11 8 0 15
4 15 8 0 4 -9 8 -19 8 -11 0 -17 -4 -15 -8 3 -4 0 -8 -6 -8 -7 0 -9 8 -5 19 5
16 1 19 -22 16 -18 -2 -36 4 -50 18 -13 11 -23 16 -23 11z"/>
<path d="M113 792 c-8 -5 -8 -12 2 -25 11 -15 14 -16 25 -2 9 11 15 12 20 5 5
-8 10 -7 18 2 9 11 6 14 -16 13 -15 0 -29 3 -32 7 -3 4 -11 4 -17 0z"/>
<path d="M1795 770 c-16 -4 -25 -8 -18 -9 6 0 14 -9 16 -18 4 -15 5 -15 6 -2
0 9 11 21 24 27 25 12 15 13 -28 2z"/>
<path d="M2966 762 c-4 -7 -2 -12 4 -12 6 0 8 -4 5 -10 -3 -6 1 -7 9 -4 9 3
16 10 16 16 0 5 -4 7 -9 4 -5 -4 -11 -1 -13 6 -3 9 -6 9 -12 0z"/>
<path d="M1660 750 c-20 -6 -21 -8 -5 -8 11 0 34 4 50 8 27 7 27 8 5 8 -14 0
-36 -4 -50 -8z"/>
<path d="M2548 749 c-24 -13 -23 -25 2 -32 11 -3 18 -1 15 3 -3 5 1 10 7 13 9
3 10 8 3 15 -7 7 -16 8 -27 1z"/>
<path d="M2590 748 c0 -7 4 -19 9 -26 7 -11 10 -10 15 3 3 9 4 21 0 26 -8 13
-24 11 -24 -3z"/>
<path d="M17 722 c-7 -34 -5 -36 14 -14 12 14 13 21 3 29 -9 9 -13 6 -17 -15z"/>
<path d="M280 726 c0 -25 -19 -28 -63 -11 -31 12 -49 13 -67 6 l-25 -10 26 0
c14 -1 29 -4 33 -8 4 -4 27 -9 50 -10 36 -2 45 2 55 20 l12 22 -5 -22 c-2 -13
0 -26 5 -29 5 -3 9 -13 9 -22 0 -21 34 -44 55 -36 8 3 15 14 15 23 0 14 2 14
11 1 9 -13 10 -12 5 3 -3 9 -1 17 5 17 6 0 7 5 4 10 -3 6 -14 10 -23 10 -13 0
-14 -2 -3 -9 18 -11 -2 -23 -25 -14 -14 5 -16 3 -11 -11 5 -12 3 -16 -5 -13
-7 2 -13 13 -13 24 0 12 -3 25 -7 29 -5 4 -8 16 -8 26 0 10 -7 18 -15 18 -8 0
-15 -6 -15 -14z"/>
<path d="M1530 733 c-14 -3 -29 -8 -34 -13 -7 -7 19 -4 89 13 16 4 14 5 -5 4
-14 0 -36 -2 -50 -4z"/>
<path d="M2680 725 c-8 -10 -7 -14 2 -17 7 -3 19 2 26 11 12 14 13 14 8 -1 -3
-12 0 -18 9 -18 30 0 10 31 -22 36 -7 1 -17 -4 -23 -11z"/>
<path d="M2989 728 c-7 -25 -7 -48 1 -48 6 0 10 11 10 25 0 20 -7 35 -11 23z"/>
<path d="M35 700 c-9 -14 4 -32 18 -23 6 4 30 6 52 4 49 -3 44 6 -6 12 -20 2
-41 7 -47 11 -6 3 -13 2 -17 -4z"/>
<path d="M1339 682 c-5 -12 -20 -39 -33 -59 -14 -20 -23 -40 -21 -44 3 -4 -2
-9 -10 -13 -8 -3 -15 -11 -15 -17 0 -20 39 22 82 88 22 34 48 64 57 66 9 3 1
4 -18 4 -25 -1 -35 -7 -42 -25z"/>
<path d="M2265 696 c-18 -13 -18 -14 8 -9 15 3 24 9 21 14 -7 12 -7 12 -29 -5z"/>
<path d="M650 668 c0 -43 10 -56 47 -67 l31 -9 -20 49 c-14 34 -26 48 -35 45
-8 -3 -11 -1 -8 4 3 6 1 10 -4 10 -6 0 -11 -15 -11 -32z m48 -41 c5 -24 -15
-21 -28 4 -10 18 -9 20 7 17 10 -2 19 -11 21 -21z"/>
<path d="M2566 691 c-3 -5 3 -11 13 -14 25 -6 31 -71 14 -141 -13 -54 -10 -66
15 -66 18 0 23 34 9 58 -17 26 48 34 65 8 10 -14 -2 55 -13 74 -5 10 -8 11 -9
3 0 -19 -37 -16 -44 3 -3 8 -1 24 4 35 13 23 4 43 -16 35 -8 -3 -14 -1 -14 4
0 12 -17 13 -24 1z"/>
<path d="M2895 690 c-3 -5 -3 -10 2 -10 4 0 1 -4 -7 -10 -9 -5 -19 -5 -28 2
-8 7 -16 8 -23 1 -7 -7 -5 -14 6 -23 8 -7 15 -10 15 -6 0 4 12 0 28 -7 30 -15
41 -15 59 -4 6 4 14 3 18 -3 3 -5 11 -10 17 -10 18 0 -10 27 -48 45 -19 9 -32
20 -29 26 4 5 4 9 1 9 -3 0 -8 -4 -11 -10z m49 -39 c7 -10 -49 -9 -60 2 -4 4
7 7 24 7 17 0 33 -4 36 -9z"/>
<path d="M150 668 c0 -4 -13 -5 -29 -2 -21 4 -30 2 -35 -12 -8 -22 34 -71 45
-52 9 15 1 30 -12 23 -16 -10 -30 5 -17 18 9 11 27 13 71 8 14 -2 7 -21 -8
-21 -8 0 -15 -5 -15 -10 0 -6 20 -9 45 -8 27 2 45 8 45 15 0 7 -6 10 -14 7
-18 -7 -32 14 -18 28 6 6 12 6 16 -1 10 -15 39 -14 34 1 -5 14 -108 20 -108 6z"/>
<path d="M2687 666 c-9 -23 -9 -36 1 -35 27 5 42 -3 42 -22 0 -16 -5 -20 -19
-16 -17 4 -18 2 -9 -25 8 -23 13 -27 20 -16 6 8 7 -1 3 -27 -4 -28 -1 -46 9
-60 13 -18 14 -10 11 85 -2 65 0 97 5 85 8 -19 9 -19 9 2 1 22 -30 40 -48 29
-5 -4 -11 -1 -13 6 -3 7 -7 5 -11 -6z"/>
<path d="M2766 583 c-4 -54 -9 -118 -11 -143 -3 -34 -2 -39 5 -20 4 14 9 54
10 90 1 36 5 89 9 118 4 28 4 52 0 52 -4 0 -10 -44 -13 -97z"/>
<path d="M270 655 c0 -8 6 -15 13 -15 8 0 7 -4 -3 -10 -13 -8 -12 -10 3 -10 9
0 17 7 17 15 0 8 -6 15 -12 15 -9 0 -8 4 2 10 13 8 12 10 -2 10 -10 0 -18 -7
-18 -15z"/>
<path d="M522 645 c-15 -33 -15 -36 3 -29 18 7 37 -4 29 -18 -4 -7 -9 -6 -14
1 -5 9 -10 8 -19 -3 -10 -12 -8 -14 16 -11 15 1 32 -2 38 -9 5 -6 9 -9 8 -7
-2 2 3 11 10 19 10 13 9 15 -7 9 -16 -6 -17 -5 -7 7 10 12 8 16 -8 21 -11 3
-20 9 -20 13 6 38 -13 42 -29 7z"/>
<path d="M2635 660 c-3 -5 -1 -10 5 -10 6 0 8 -4 5 -10 -3 -5 0 -10 8 -10 10
0 13 7 10 20 -6 22 -18 26 -28 10z"/>
<path d="M18 632 c-2 -18 -1 -32 4 -32 4 0 8 5 8 11 0 5 4 8 9 4 6 -3 8 -14 6
-25 -3 -17 0 -19 22 -16 14 3 28 8 32 12 3 4 -2 4 -12 1 -15 -6 -17 -3 -11 15
5 17 3 20 -11 14 -13 -5 -16 -2 -11 11 4 10 4 14 0 10 -4 -4 -12 1 -19 10 -11
14 -13 12 -17 -15z"/>
<path d="M433 648 c-2 -5 11 -8 29 -8 25 0 29 -3 18 -10 -13 -8 -13 -10 2 -10
10 0 16 7 15 18 0 12 -9 17 -30 17 -16 0 -31 -3 -34 -7z"/>
<path d="M867 636 c-4 -10 -5 -21 -2 -24 9 -9 17 6 13 25 -3 17 -4 17 -11 -1z"/>
<path d="M2564 639 c-3 -6 0 -17 8 -25 12 -12 14 -10 16 11 2 26 -11 34 -24
14z"/>
<path d="M2822 508 c-20 -215 -22 -198 51 -348 44 -89 66 -126 67 -109 0 14
-13 46 -29 71 -16 25 -32 59 -36 77 -4 17 -10 29 -15 26 -9 -6 -20 18 -20 46
0 10 -4 19 -10 19 -5 0 -10 19 -10 43 0 32 3 38 11 27 7 -11 8 -5 3 22 l-6 38
36 -15 c21 -9 36 -11 36 -5 0 5 -7 10 -15 10 -8 0 -15 4 -15 9 0 5 -8 8 -17 7
-19 -1 -25 25 -9 36 6 4 6 12 -2 20 -6 8 -8 28 -5 48 4 19 6 47 6 61 0 19 4
26 16 24 9 -1 15 -4 13 -6 -2 -2 2 -17 8 -34 7 -16 13 -43 16 -59 2 -16 6 -31
10 -35 4 -3 4 7 0 22 -5 22 -4 27 6 21 7 -4 10 -4 6 0 -4 5 -3 18 2 31 6 17 5
27 -5 35 -8 7 -12 17 -8 24 3 6 3 8 -2 4 -4 -4 -20 -1 -36 7 -15 8 -30 15 -32
15 -2 0 -9 -60 -15 -132z"/>
<path d="M408 623 c-21 -2 -38 -9 -38 -15 0 -5 7 -7 16 -4 9 3 29 6 45 6 16 0
29 5 29 10 0 6 -3 9 -7 8 -5 -1 -25 -3 -45 -5z"/>
<path d="M890 621 c0 -14 32 -23 44 -11 5 5 6 13 2 17 -4 4 -11 1 -16 -7 -7
-10 -10 -11 -10 -2 0 6 -4 12 -10 12 -5 0 -10 -4 -10 -9z"/>
<path d="M2075 583 c-33 -20 -62 -39 -65 -42 -3 -4 -18 -14 -35 -23 -16 -10
-29 -22 -27 -28 1 -6 -3 -10 -10 -8 -12 2 -78 -28 -78 -36 0 -2 25 5 55 16 30
12 52 24 50 29 -3 4 18 18 46 32 28 13 51 28 52 33 1 5 8 8 14 8 7 -1 10 2 7
7 -3 5 2 9 10 9 9 0 16 5 16 10 0 6 7 10 15 10 8 0 15 5 15 10 0 13 3 15 -65
-27z"/>
<path d="M309 606 c-2 -2 -32 -7 -66 -11 -77 -7 -100 -12 -116 -22 -6 -4 -19
-8 -27 -10 -15 -2 -43 -34 -35 -41 2 -2 11 3 20 12 9 9 25 16 36 16 11 0 18 4
15 9 -3 5 28 14 70 20 124 18 114 27 114 -93 0 -93 2 -104 19 -109 10 -2 25
-1 32 4 10 6 6 9 -14 9 -18 0 -26 4 -21 11 4 7 7 21 8 32 1 11 7 22 13 24 9 3
12 -4 9 -24 -2 -15 -1 -22 1 -15 3 7 9 10 14 7 11 -8 12 16 0 34 -5 8 -16 11
-24 8 -20 -8 -27 13 -27 78 0 43 4 54 18 58 11 3 8 5 -9 6 -14 0 -28 -1 -30
-3z"/>
<path d="M1420 594 c-30 -8 -36 -12 -20 -12 14 0 41 6 60 13 44 17 20 17 -40
-1z"/>
<path d="M1165 567 c-6 -29 -12 -36 -46 -46 -61 -18 -45 -42 17 -25 15 4 26
19 34 50 7 25 10 47 7 50 -3 3 -9 -10 -12 -29z"/>
<path d="M2793 540 c0 -36 2 -50 4 -32 2 17 2 47 0 65 -2 17 -4 3 -4 -33z"/>
<path d="M723 573 c9 -2 25 -2 35 0 9 3 1 5 -18 5 -19 0 -27 -2 -17 -5z"/>
<path d="M1048 568 c8 -8 20 -8 44 -1 l33 11 -44 1 c-34 1 -42 -2 -33 -11z"/>
<path d="M10 558 c0 -8 5 -19 12 -26 9 -9 8 -12 -5 -12 -9 0 -17 -4 -17 -10 0
-5 5 -9 12 -7 18 3 37 21 31 30 -2 4 1 7 6 7 6 0 11 5 11 11 0 5 -5 7 -10 4
-6 -4 -17 -1 -25 5 -12 10 -15 10 -15 -2z"/>
<path d="M2936 555 c-9 -24 -8 -28 9 -21 9 3 18 -1 21 -9 4 -8 11 -15 17 -15
6 0 7 3 4 7 -4 3 -1 13 6 22 10 14 10 14 -5 3 -14 -11 -18 -10 -31 8 -13 18
-15 19 -21 5z"/>
<path d="M2355 542 c5 -17 3 -21 -9 -16 -9 4 -16 1 -16 -6 0 -7 -7 -18 -15
-24 -10 -8 -12 -16 -5 -26 8 -13 11 -13 22 -1 10 10 10 12 1 7 -7 -4 -13 -2
-13 3 0 6 5 11 10 11 6 0 10 7 10 15 0 8 6 12 14 9 20 -7 26 19 9 35 -13 12
-14 11 -8 -7z"/>
<path d="M2476 551 c-8 -12 13 -28 45 -36 19 -5 28 -2 32 9 5 13 3 15 -11 7
-20 -10 -66 4 -57 19 3 5 4 10 1 10 -3 0 -7 -4 -10 -9z"/>
<path d="M130 529 c0 -5 -4 -7 -10 -4 -5 3 -10 3 -10 -2 0 -4 -20 -16 -45 -26
-36 -15 -42 -21 -32 -32 7 -7 15 -11 20 -8 4 2 7 -3 7 -11 0 -9 6 -16 13 -16
25 0 27 13 6 28 -17 12 -18 16 -8 23 21 13 25 11 44 -17 10 -15 12 -23 4 -19
-9 6 -11 4 -6 -7 8 -22 -26 -29 -52 -11 -14 9 -21 10 -21 3 0 -7 9 -14 20 -17
23 -6 27 -23 5 -23 -8 0 -15 -9 -15 -21 0 -11 -4 -17 -10 -14 -16 10 -40 -15
-40 -41 0 -13 4 -24 9 -24 4 0 7 11 6 25 -3 20 1 24 18 21 11 -1 24 -11 28
-22 6 -14 8 -9 8 18 1 20 5 40 11 43 12 7 24 -38 17 -65 -3 -11 -1 -18 4 -14
5 3 9 13 10 22 0 14 2 13 9 -3 5 -11 9 -15 9 -10 1 11 21 -15 21 -29 0 -4 -8
-5 -17 -2 -16 6 -16 6 0 -12 9 -10 15 -21 12 -24 -3 -2 2 -5 10 -5 8 0 12 4 9
8 -2 4 0 10 5 13 11 7 9 30 -3 33 -17 4 -34 38 -25 49 7 8 5 14 -3 16 -8 3 -5
9 10 17 18 10 20 15 12 32 -9 16 -7 21 15 29 15 6 31 10 36 10 5 0 9 4 9 9 0
6 -9 9 -19 8 -11 0 -17 -5 -15 -9 3 -4 0 -8 -5 -8 -6 0 -11 4 -11 9 0 5 -3 18
-7 28 -5 14 -4 16 8 7 8 -6 24 -8 39 -3 21 6 22 7 5 9 -11 1 -24 2 -28 1 -5
-1 -11 7 -14 18 -4 18 -7 18 -20 6 -8 -8 -12 -18 -9 -23 2 -4 1 -14 -4 -21 -6
-10 -10 -8 -15 8 -4 15 -1 29 11 42 10 11 12 19 6 19 -7 0 -12 -5 -12 -11z
m-10 -129 c14 23 31 1 18 -23 -7 -12 -11 -26 -9 -32 1 -7 -1 -7 -8 0 -5 6 -12
24 -15 40 -4 17 -3 24 0 16 5 -10 8 -11 14 -1z"/>
<path d="M660 536 c0 -12 34 -36 51 -36 27 0 24 15 -6 28 -27 12 -45 15 -45 8z"/>
<path d="M2936 505 c-3 -9 -6 -33 -6 -53 0 -28 3 -33 10 -22 6 10 10 11 10 3
0 -7 7 -13 15 -13 21 0 19 33 -4 70 -15 25 -20 28 -25 15z"/>
<path d="M2460 503 c0 -5 11 -8 24 -8 13 0 22 3 19 8 -2 4 -13 7 -24 7 -10 0
-19 -3 -19 -7z"/>
<path d="M466 480 c14 -21 12 -66 -3 -62 -7 1 -13 -6 -13 -15 -1 -15 -4 -14
-20 6 l-20 23 -14 -33 c-21 -52 -27 -87 -17 -94 5 -3 29 1 53 9 24 8 70 19
103 26 109 20 185 44 185 58 0 14 -21 12 -67 -5 -16 -6 -16 -5 -4 10 7 9 17
14 22 11 5 -3 17 0 26 6 16 10 15 10 -4 5 -12 -3 -24 -1 -28 5 -3 5 -14 10
-23 9 -11 0 -13 -2 -4 -6 11 -4 10 -8 -2 -22 -13 -15 -16 -21 -16 -36 0 -3
-10 -1 -21 6 -13 7 -19 7 -15 1 4 -6 -2 -11 -11 -11 -10 0 -51 -7 -91 -17 -55
-13 -76 -14 -84 -6 -7 7 -8 15 -4 19 4 4 11 1 15 -6 6 -9 11 -10 15 -2 4 6 4
11 -1 12 -18 1 34 18 60 18 16 1 26 5 22 11 -4 6 -10 8 -14 6 -4 -3 -5 10 -3
28 3 22 -2 36 -15 47 -16 12 -17 12 -7 -1z"/>
<path d="M2026 475 c-16 -12 -22 -12 -35 -2 -14 10 -14 10 -3 -4 12 -16 67
-15 57 1 -3 5 3 11 12 13 13 3 13 5 3 6 -8 0 -24 -6 -34 -14z"/>
<path d="M2455 471 c-3 -5 -1 -12 4 -16 6 -3 8 -12 4 -21 -4 -11 -9 -12 -18
-4 -10 8 -15 8 -21 -1 -4 -8 -3 -9 5 -5 6 4 14 1 17 -8 4 -11 9 -12 18 -4 15
14 18 48 5 48 -6 0 -7 5 -4 10 3 6 4 10 1 10 -3 0 -7 -4 -11 -9z"/>
<path d="M2695 470 c4 -6 -8 -11 -27 -11 -27 -1 -29 -3 -8 -6 14 -3 28 -10 32
-17 6 -8 8 -7 8 2 0 7 4 11 9 8 5 -4 7 3 4 14 -3 11 -10 20 -15 20 -5 0 -6 -4
-3 -10z"/>
<path d="M2515 443 c-10 -16 -12 -23 -5 -16 7 6 20 9 29 6 13 -4 13 -3 2 5 -7
5 -10 15 -7 21 4 6 5 11 3 11 -3 0 -13 -12 -22 -27z"/>
<path d="M2783 410 c0 -25 2 -35 4 -22 2 12 2 32 0 45 -2 12 -4 2 -4 -23z"/>
<path d="M287 427 c-11 -7 -17 -21 -15 -31 2 -14 -4 -20 -24 -23 -21 -3 -27 1
-31 19 -4 20 -4 19 -6 -4 -1 -21 4 -28 18 -28 10 0 24 -7 31 -15 15 -18 34
-20 24 -2 -4 6 -4 9 1 5 9 -9 35 9 35 23 0 5 -7 9 -15 9 -17 0 -20 17 -4 22 6
2 10 12 8 21 -4 16 -6 16 -22 4z"/>
<path d="M2578 398 l-3 -43 -26 28 c-18 20 -26 24 -26 13 0 -9 4 -16 8 -16 4
0 6 -8 4 -17 -1 -10 0 -12 2 -5 3 9 9 10 16 4 15 -12 87 -20 87 -10 0 13 28 9
33 -4 4 -10 6 -10 6 0 1 8 -8 16 -20 19 -18 5 -20 11 -14 39 6 33 5 34 -29 34
-34 0 -35 -1 -38 -42z"/>
<path d="M2704 423 c-7 -2 -9 -13 -6 -25 4 -15 2 -19 -7 -14 -9 6 -9 3 1 -13
7 -12 16 -21 21 -21 4 0 5 6 1 13 -6 9 -5 9 8 0 8 -7 18 -9 23 -5 4 4 6 0 3
-8 -5 -17 28 -57 39 -47 3 4 1 7 -5 7 -7 0 -12 7 -12 16 0 8 4 12 10 9 6 -3 7
1 4 9 -3 9 -12 16 -19 16 -7 0 -18 14 -25 30 -14 34 -20 39 -36 33z"/>
<path d="M2303 409 c1 -7 -4 -14 -12 -17 -8 -3 -11 0 -7 7 5 7 -5 11 -28 11
-20 0 -36 -4 -36 -10 0 -5 10 -10 23 -10 12 -1 33 -7 47 -15 30 -17 50 -19 50
-5 0 6 -6 10 -13 8 -7 -2 -14 0 -15 5 -2 8 6 9 31 1 11 -3 16 -12 13 -20 -3
-8 -2 -12 3 -9 5 3 12 1 16 -5 3 -5 12 -10 18 -10 7 0 6 4 -3 10 -13 8 -12 10
3 10 9 0 17 -7 17 -15 0 -8 5 -15 11 -15 5 0 7 5 4 10 -9 15 1 12 49 -12 25
-13 47 -31 50 -42 2 -10 9 -16 13 -13 11 7 25 -3 39 -28 12 -22 44 -33 44 -16
0 6 -9 11 -20 11 -14 0 -20 7 -20 21 0 16 5 20 28 17 18 -2 26 -8 24 -19 -1
-9 4 -22 12 -28 11 -9 15 -6 19 17 5 26 10 28 46 28 30 0 42 -5 47 -18 6 -19
34 -25 34 -7 0 5 -4 7 -10 4 -6 -4 -7 1 -3 10 8 22 -13 35 -59 35 -25 0 -40 6
-47 18 -9 15 -10 15 -11 -5 0 -21 -5 -23 -55 -23 -46 0 -55 3 -55 18 0 18
-117 72 -158 72 -12 0 -37 9 -57 20 -19 11 -34 15 -32 9z"/>
<path d="M1147 370 c3 -11 11 -19 17 -17 17 6 13 31 -6 35 -12 2 -15 -2 -11
-18z"/>
<path d="M2856 374 c-7 -18 -8 -90 -1 -83 5 5 15 99 10 99 -2 0 -6 -7 -9 -16z"/>
<path d="M2924 381 c3 -5 14 -11 25 -14 14 -3 18 -1 14 9 -3 8 -14 14 -25 14
-10 0 -17 -4 -14 -9z"/>
<path d="M178 359 c-12 -13 -13 -19 -5 -23 7 -2 4 -5 -6 -5 -10 -1 -15 -6 -12
-12 4 -6 13 -8 21 -5 7 3 16 1 19 -4 10 -16 25 -11 25 8 -1 9 -6 26 -13 38
-11 19 -13 19 -29 3z"/>
<path d="M318 334 l-18 -34 28 5 27 6 -25 -15 c-28 -17 -19 -22 11 -5 16 8 18
14 9 24 -8 9 -8 14 0 17 7 2 6 9 -2 20 -12 15 -15 14 -30 -18z"/>
<path d="M1520 270 c-108 -64 -166 -105 -168 -117 -2 -12 4 -19 15 -20 10 -1
54 -4 98 -7 78 -6 95 5 27 18 -23 4 -31 2 -26 -6 5 -7 3 -8 -7 -2 -14 9 -19
10 -40 13 -5 0 -7 6 -4 11 3 5 2 10 -4 10 -6 0 -8 7 -5 15 4 8 11 15 16 15 6
0 65 33 131 73 142 84 147 86 127 61 -8 -10 -8 -14 -1 -8 7 6 33 10 59 7 l47
-4 -35 14 c-19 8 -42 17 -50 20 -9 3 -85 -36 -180 -93z"/>
<path d="M2901 363 c0 -5 4 -17 9 -28 8 -17 8 -16 7 8 -1 15 -5 27 -9 27 -4 0
-8 -3 -7 -7z"/>
<path d="M2129 318 c-19 -24 -26 -37 -16 -29 20 16 61 71 54 71 -3 0 -20 -19
-38 -42z"/>
<path d="M2976 344 c-8 -21 -8 -109 0 -101 6 6 14 117 9 117 -2 0 -6 -7 -9
-16z"/>
<path d="M605 318 c-16 -6 -38 -14 -47 -19 -10 -5 -28 -9 -40 -9 -28 -1 -82
-29 -56 -30 9 0 20 5 23 10 4 6 10 8 14 6 4 -3 34 3 67 13 32 10 66 16 74 14
12 -4 12 -3 1 5 -11 8 -11 10 0 15 24 9 -5 5 -36 -5z"/>
<path d="M228 281 c-15 -18 -14 -18 16 -16 17 2 37 3 44 4 7 1 11 5 7 11 -3 5
-12 7 -20 3 -8 -3 -15 0 -15 6 0 17 -14 13 -32 -8z"/>
<path d="M73 258 c-4 -7 -21 -13 -38 -13 -24 0 -31 -5 -33 -24 -3 -20 -1 -22
15 -16 10 4 30 10 45 13 15 2 25 9 22 14 -3 5 2 16 12 23 17 13 17 14 2 15 -9
0 -21 -6 -25 -12z"/>
<path d="M285 250 c-25 -11 1 -11 35 0 20 6 21 8 5 8 -11 0 -29 -3 -40 -8z"/>
<path d="M390 251 l-25 -7 24 -6 c15 -4 29 -1 38 8 16 16 7 17 -37 5z"/>
<path d="M1247 241 c-23 -10 -36 -22 -34 -31 2 -8 10 -13 18 -11 8 2 31 6 53
7 38 3 64 14 32 14 -9 0 -20 8 -24 18 -7 17 -9 17 -45 3z"/>
<path d="M2520 251 c0 -6 7 -14 15 -17 8 -4 13 -10 10 -14 -3 -5 -1 -11 5 -15
18 -11 10 22 -10 40 -12 11 -20 13 -20 6z"/>
<path d="M2925 241 c-3 -5 2 -11 10 -15 8 -3 17 -1 20 3 3 5 -2 11 -10 15 -8
3 -17 1 -20 -3z"/>
<path d="M190 225 c-22 -8 -28 -13 -15 -13 11 0 36 6 55 13 22 8 28 13 15 13
-11 0 -36 -6 -55 -13z"/>
<path d="M305 225 c-34 -16 -19 -20 19 -5 18 6 26 6 26 -1 0 -6 5 -7 10 -4 13
8 3 25 -13 24 -7 0 -25 -7 -42 -14z"/>
<path d="M1386 228 c3 -4 -5 -8 -18 -8 -13 0 -29 -9 -36 -21 -9 -14 -20 -19
-33 -16 -10 3 -17 1 -13 -4 3 -5 -7 -9 -21 -9 -14 0 -24 -4 -21 -8 3 -5 -14
-7 -37 -6 -36 2 -42 5 -41 23 1 25 -4 26 -30 6 -13 -10 -15 -15 -6 -15 27 0 0
-12 -32 -15 -26 -2 -33 -7 -33 -24 0 -12 5 -21 10 -20 6 0 8 8 6 17 -3 15 0
15 18 -2 18 -16 21 -17 21 -3 0 20 12 23 62 18 l41 -3 -38 -24 c-21 -12 -43
-20 -48 -17 -6 3 -7 1 -3 -5 7 -11 -14 -17 -39 -12 -5 1 -6 -2 -2 -6 4 -4 -18
-23 -50 -41 -43 -24 -52 -33 -35 -33 13 0 83 35 155 78 73 44 147 87 165 96
19 10 30 21 26 28 -4 6 -3 8 4 4 6 -3 26 3 44 14 33 20 33 20 6 18 -15 -1 -24
-6 -22 -10z"/>
<path d="M2793 199 c2 -23 8 -35 20 -37 18 -4 18 -2 1 30 -23 46 -24 46 -21 7z"/>
<path d="M240 212 c0 -5 -12 -13 -27 -20 -16 -6 -21 -10 -13 -8 8 2 23 -1 32
-6 14 -6 16 -5 12 7 -5 11 -2 13 10 9 9 -3 16 -2 16 4 0 5 -7 12 -15 16 -8 3
-15 2 -15 -2z"/>
<path d="M1189 218 c-6 -20 -3 -48 6 -48 8 0 10 10 7 25 -4 21 -10 32 -13 23z"/>
<path d="M85 195 c-22 -7 -31 -13 -20 -13 11 0 36 6 55 13 45 17 17 18 -35 0z"/>
<path d="M153 183 c-18 -6 -16 -23 2 -23 8 0 15 -6 15 -12 0 -9 4 -8 10 2 6
10 10 11 10 3 0 -7 4 -13 8 -13 5 0 9 7 9 15 0 8 -8 15 -18 15 -9 0 -19 4 -21
9 -1 4 -9 6 -15 4z"/>
<path d="M1845 180 c-3 -5 0 -10 7 -10 7 -1 3 -6 -10 -13 -12 -7 -19 -16 -16
-20 4 -4 -2 -7 -14 -7 -22 0 -42 -20 -20 -20 8 -1 5 -7 -7 -16 -11 -8 -29 -13
-40 -10 -20 5 -20 5 -1 -9 19 -14 18 -15 -4 -23 -21 -8 -38 -52 -20 -52 4 0
47 43 95 95 78 85 84 95 62 95 -14 0 -29 -4 -32 -10z"/>
<path d="M95 160 c-18 -8 -17 -9 8 -9 15 -1 27 4 27 9 0 12 -8 12 -35 0z"/>
<path d="M40 145 c0 -8 9 -15 19 -15 11 0 22 -8 24 -17 4 -17 5 -17 6 -1 1 11
6 15 16 12 8 -4 15 -1 15 5 0 6 -11 11 -25 11 -14 0 -25 5 -25 10 0 6 -7 10
-15 10 -8 0 -15 -7 -15 -15z"/>
<path d="M1952 138 c16 -10 75 -10 81 0 3 4 -17 7 -44 8 -29 0 -44 -3 -37 -8z"/>
<path d="M2807 130 c5 -20 30 -46 37 -39 2 2 2 16 -1 32 -3 17 -12 27 -23 27
-13 0 -17 -6 -13 -20z"/>
<path d="M1924 123 c2 -10 11 -20 22 -22 19 -3 19 -3 0 18 -23 26 -25 26 -22
4z"/>
<path d="M389 112 c7 -13 11 -35 9 -50 -2 -21 -12 -30 -48 -44 l-45 -17 38 0
c21 -1 43 4 50 9 7 6 21 18 32 26 16 13 17 15 3 10 -15 -4 -18 1 -18 28 0 19
-7 39 -17 47 -15 13 -15 12 -4 -9z"/>
<path d="M1320 112 c0 -8 46 -9 54 -1 3 3 -8 6 -24 7 -17 1 -30 -1 -30 -6z"/>
<path d="M980 93 c9 -19 8 -23 -5 -23 -10 0 -13 5 -9 13 4 6 -3 2 -15 -10 -22
-24 -28 -53 -10 -53 6 0 9 7 6 15 -8 19 10 30 27 16 27 -22 35 14 10 45 -14
18 -15 18 -4 -3z"/>
<path d="M1025 93 c-18 -17 -18 -18 4 -21 29 -4 35 2 24 23 -9 15 -11 15 -28
-2z"/>
<path d="M1509 99 c-7 -4 -10 -11 -6 -16 5 -4 12 -1 17 7 7 10 10 11 10 3 0
-7 3 -12 8 -12 4 1 9 0 12 -1 16 -7 120 -7 120 1 0 9 -20 13 -51 10 -9 -1 -34
2 -57 7 -22 5 -46 6 -53 1z"/>
<path d="M1976 102 c-2 -4 6 -9 20 -10 13 -1 24 3 24 8 0 12 -37 14 -44 2z"/>
<path d="M1287 94 c-12 -12 3 -22 24 -17 16 4 17 8 7 14 -16 10 -23 11 -31 3z"/>
<path d="M1251 66 c-7 -8 -19 -12 -26 -10 -7 3 -19 -4 -25 -17 -10 -18 -10
-21 3 -16 8 3 19 1 24 -4 13 -13 84 -19 104 -8 9 4 19 5 23 2 9 -9 56 -10 56
-1 0 4 -5 8 -10 8 -6 0 -22 11 -35 25 -14 13 -25 20 -25 14 0 -6 -4 -7 -10 -4
-5 3 -10 1 -10 -4 0 -6 6 -11 14 -11 8 0 17 -4 20 -9 3 -4 -6 -7 -20 -5 -15 1
-36 -1 -48 -6 -13 -5 -31 -2 -48 6 -33 17 -37 28 -8 20 11 -3 30 -8 43 -11 21
-6 21 -5 -3 10 -25 16 -25 16 -1 9 17 -4 22 -2 19 7 -6 19 -23 22 -37 5z"/>
<path d="M1365 70 c3 -5 13 -6 22 -3 12 5 15 2 11 -8 -4 -11 3 -14 33 -11 27
3 39 0 39 -9 0 -10 3 -10 11 -2 6 6 26 9 45 6 19 -3 34 -1 34 4 0 6 -26 11
-57 13 -32 1 -66 3 -75 3 -10 1 -18 5 -18 9 0 4 -12 8 -26 8 -14 0 -23 -4 -19
-10z"/>
<path d="M1875 71 c3 -5 -2 -12 -10 -14 -12 -4 -12 -5 1 -3 19 1 32 26 14 26
-6 0 -9 -4 -5 -9z"/>
<path d="M1913 66 c6 -7 23 -10 39 -8 37 6 26 17 -17 18 -25 1 -31 -1 -22 -10z"/>
<path d="M2841 56 c7 -14 16 -26 21 -26 4 0 8 -7 8 -15 0 -8 4 -15 9 -15 17 0
-15 75 -33 78 -14 3 -15 0 -5 -22z"/>
<path d="M849 47 c-18 -13 -22 -50 -5 -44 6 2 11 10 11 18 0 8 6 17 14 20 8 3
10 8 5 11 -5 4 -16 1 -25 -5z"/>
<path d="M1570 50 c0 -5 3 -10 8 -11 4 0 20 -2 36 -4 35 -5 22 10 -16 19 -17
4 -28 2 -28 -4z"/>
<path d="M958 34 c6 -12 8 -25 4 -30 -4 -5 1 -2 11 5 9 8 16 14 15 15 -2 1
-12 8 -22 16 -18 14 -19 14 -8 -6z"/>
<path d="M2310 41 c0 -10 26 -9 36 2 4 4 -2 7 -14 7 -12 0 -22 -4 -22 -9z"/>
<path d="M1421 23 c11 -19 15 -20 22 -7 5 9 6 18 3 21 -3 4 -6 1 -6 -7 0 -10
-3 -10 -17 1 -15 13 -15 12 -2 -8z"/>
<path d="M1921 32 c-1 -18 26 -26 52 -15 21 10 21 10 -5 15 -15 3 -25 1 -22
-3 3 -5 1 -9 -5 -9 -5 0 -12 6 -14 13 -4 9 -6 9 -6 -1z"/>
<path d="M1150 11 c0 -6 9 -9 19 -8 11 0 17 5 15 9 -7 11 -34 10 -34 -1z"/>
<path d="M898 3 c12 -2 30 -2 40 0 9 3 -1 5 -23 4 -22 0 -30 -2 -17 -4z"/>
</g>
</svg>
